<mxfile host="app.diagrams.net" agent="Mozilla/5.0 (Windows NT 6.1; Win64; x64; rv:109.0) Gecko/20100101 Firefox/115.0" version="24.7.15">
  <diagram name="Page-1" id="NeMBY6Do9r6Yi1AQdj8O">
    <mxGraphModel dx="612" dy="429" grid="1" gridSize="10" guides="1" tooltips="1" connect="1" arrows="1" fold="1" page="1" pageScale="1" pageWidth="850" pageHeight="1100" math="1" shadow="0">
      <root>
        <mxCell id="0" />
        <mxCell id="1" parent="0" />
        <mxCell id="ntq3JqYu1BypFF09Bx2Y-2" value="" style="verticalLabelPosition=bottom;shadow=0;dashed=0;align=center;html=1;verticalAlign=top;shape=mxgraph.electrical.transistors.pnp_transistor_5;flipH=1;strokeWidth=2;" vertex="1" parent="1">
          <mxGeometry x="380" y="380" width="64" height="100" as="geometry" />
        </mxCell>
        <mxCell id="ntq3JqYu1BypFF09Bx2Y-3" value="" style="verticalLabelPosition=bottom;shadow=0;dashed=0;align=center;html=1;verticalAlign=top;shape=mxgraph.electrical.transistors.pnp_transistor_5;flipH=0;strokeWidth=2;" vertex="1" parent="1">
          <mxGeometry x="556" y="380" width="64" height="100" as="geometry" />
        </mxCell>
        <mxCell id="ntq3JqYu1BypFF09Bx2Y-4" value="" style="pointerEvents=1;verticalLabelPosition=bottom;shadow=0;dashed=0;align=center;html=1;verticalAlign=top;shape=mxgraph.electrical.resistors.resistor_1;direction=south;strokeWidth=2;" vertex="1" parent="1">
          <mxGeometry x="375" y="176" width="10" height="70" as="geometry" />
        </mxCell>
        <mxCell id="ntq3JqYu1BypFF09Bx2Y-5" value="" style="pointerEvents=1;verticalLabelPosition=bottom;shadow=0;dashed=0;align=center;html=1;verticalAlign=top;shape=mxgraph.electrical.resistors.resistor_1;direction=south;strokeWidth=2;" vertex="1" parent="1">
          <mxGeometry x="615" y="176" width="10" height="70" as="geometry" />
        </mxCell>
        <mxCell id="ntq3JqYu1BypFF09Bx2Y-6" value="" style="pointerEvents=1;verticalLabelPosition=bottom;shadow=0;dashed=0;align=center;html=1;verticalAlign=top;shape=mxgraph.electrical.resistors.resistor_1;direction=south;strokeWidth=2;" vertex="1" parent="1">
          <mxGeometry x="615" y="302" width="10" height="70" as="geometry" />
        </mxCell>
        <mxCell id="ntq3JqYu1BypFF09Bx2Y-9" value="" style="endArrow=none;html=1;rounded=0;exitX=1;exitY=0;exitDx=0;exitDy=0;exitPerimeter=0;entryX=1;entryY=0.5;entryDx=0;entryDy=0;entryPerimeter=0;strokeWidth=2;" edge="1" parent="1" source="ntq3JqYu1BypFF09Bx2Y-2" target="ntq3JqYu1BypFF09Bx2Y-4">
          <mxGeometry width="50" height="50" relative="1" as="geometry">
            <mxPoint x="330" y="290" as="sourcePoint" />
            <mxPoint x="380" y="240" as="targetPoint" />
          </mxGeometry>
        </mxCell>
        <mxCell id="ntq3JqYu1BypFF09Bx2Y-11" value="" style="endArrow=none;html=1;rounded=0;strokeWidth=2;" edge="1" parent="1" source="ntq3JqYu1BypFF09Bx2Y-37">
          <mxGeometry width="50" height="50" relative="1" as="geometry">
            <mxPoint x="380" y="117" as="sourcePoint" />
            <mxPoint x="662" y="117" as="targetPoint" />
          </mxGeometry>
        </mxCell>
        <mxCell id="ntq3JqYu1BypFF09Bx2Y-13" value="" style="endArrow=none;html=1;rounded=0;exitX=0.014;exitY=0.5;exitDx=0;exitDy=0;exitPerimeter=0;strokeWidth=2;entryX=0.495;entryY=1.024;entryDx=0;entryDy=0;entryPerimeter=0;" edge="1" parent="1" source="ntq3JqYu1BypFF09Bx2Y-5" target="ntq3JqYu1BypFF09Bx2Y-37">
          <mxGeometry width="50" height="50" relative="1" as="geometry">
            <mxPoint x="620" y="147" as="sourcePoint" />
            <mxPoint x="620" y="127" as="targetPoint" />
          </mxGeometry>
        </mxCell>
        <mxCell id="ntq3JqYu1BypFF09Bx2Y-14" value="" style="endArrow=none;html=1;rounded=0;exitX=0;exitY=0.5;exitDx=0;exitDy=0;exitPerimeter=0;strokeWidth=2;" edge="1" parent="1" source="ntq3JqYu1BypFF09Bx2Y-4">
          <mxGeometry width="50" height="50" relative="1" as="geometry">
            <mxPoint x="379.92" y="147" as="sourcePoint" />
            <mxPoint x="380" y="117" as="targetPoint" />
          </mxGeometry>
        </mxCell>
        <mxCell id="ntq3JqYu1BypFF09Bx2Y-20" value="" style="endArrow=none;html=1;rounded=0;exitDx=0;exitDy=0;exitPerimeter=0;entryX=1;entryY=0.5;entryDx=0;entryDy=0;entryPerimeter=0;strokeWidth=2;" edge="1" parent="1" source="ntq3JqYu1BypFF09Bx2Y-51" target="ntq3JqYu1BypFF09Bx2Y-5">
          <mxGeometry width="50" height="50" relative="1" as="geometry">
            <mxPoint x="619.99" y="279.14" as="sourcePoint" />
            <mxPoint x="620" y="217" as="targetPoint" />
          </mxGeometry>
        </mxCell>
        <mxCell id="ntq3JqYu1BypFF09Bx2Y-23" value="" style="endArrow=none;html=1;rounded=0;strokeWidth=4;" edge="1" parent="1">
          <mxGeometry width="50" height="50" relative="1" as="geometry">
            <mxPoint x="360" y="480" as="sourcePoint" />
            <mxPoint x="640" y="480" as="targetPoint" />
          </mxGeometry>
        </mxCell>
        <mxCell id="ntq3JqYu1BypFF09Bx2Y-24" value="" style="endArrow=none;html=1;rounded=0;entryX=0;entryY=0.5;entryDx=0;entryDy=0;entryPerimeter=0;strokeWidth=2;" edge="1" parent="1" target="ntq3JqYu1BypFF09Bx2Y-3">
          <mxGeometry width="50" height="50" relative="1" as="geometry">
            <mxPoint x="440" y="430" as="sourcePoint" />
            <mxPoint x="490" y="380" as="targetPoint" />
          </mxGeometry>
        </mxCell>
        <mxCell id="ntq3JqYu1BypFF09Bx2Y-25" value="" style="endArrow=none;html=1;rounded=0;strokeWidth=2;" edge="1" parent="1">
          <mxGeometry width="50" height="50" relative="1" as="geometry">
            <mxPoint x="500" y="480" as="sourcePoint" />
            <mxPoint x="500" y="430" as="targetPoint" />
          </mxGeometry>
        </mxCell>
        <mxCell id="ntq3JqYu1BypFF09Bx2Y-26" value="" style="shape=waypoint;sketch=0;fillStyle=solid;size=6;pointerEvents=1;points=[];fillColor=none;resizable=0;rotatable=0;perimeter=centerPerimeter;snapToPoint=1;strokeWidth=1;" vertex="1" parent="1">
          <mxGeometry x="490" y="420" width="20" height="20" as="geometry" />
        </mxCell>
        <mxCell id="ntq3JqYu1BypFF09Bx2Y-27" value="&lt;font style=&quot;font-size: 18px;&quot;&gt;$$R_2$$&lt;/font&gt;" style="text;html=1;align=center;verticalAlign=middle;whiteSpace=wrap;rounded=0;" vertex="1" parent="1">
          <mxGeometry x="620" y="195" width="60" height="30" as="geometry" />
        </mxCell>
        <mxCell id="ntq3JqYu1BypFF09Bx2Y-28" value="&lt;font style=&quot;font-size: 18px;&quot;&gt;$$R_1$$&lt;/font&gt;" style="text;html=1;align=center;verticalAlign=middle;whiteSpace=wrap;rounded=0;" vertex="1" parent="1">
          <mxGeometry x="620" y="322" width="60" height="30" as="geometry" />
        </mxCell>
        <mxCell id="ntq3JqYu1BypFF09Bx2Y-29" value="" style="endArrow=none;html=1;rounded=0;entryX=1;entryY=0.5;entryDx=0;entryDy=0;entryPerimeter=0;strokeWidth=2;" edge="1" parent="1">
          <mxGeometry width="50" height="50" relative="1" as="geometry">
            <mxPoint x="620" y="382" as="sourcePoint" />
            <mxPoint x="620" y="372" as="targetPoint" />
          </mxGeometry>
        </mxCell>
        <mxCell id="ntq3JqYu1BypFF09Bx2Y-30" value="&lt;font style=&quot;font-size: 18px;&quot;&gt;$$n$$&lt;/font&gt;" style="text;html=1;align=center;verticalAlign=middle;whiteSpace=wrap;rounded=0;" vertex="1" parent="1">
          <mxGeometry x="590" y="420" width="60" height="30" as="geometry" />
        </mxCell>
        <mxCell id="ntq3JqYu1BypFF09Bx2Y-31" value="&lt;font style=&quot;font-size: 18px;&quot;&gt;$$1$$&lt;/font&gt;" style="text;html=1;align=center;verticalAlign=middle;whiteSpace=wrap;rounded=0;" vertex="1" parent="1">
          <mxGeometry x="350" y="420" width="60" height="30" as="geometry" />
        </mxCell>
        <mxCell id="ntq3JqYu1BypFF09Bx2Y-32" value="&lt;font style=&quot;font-size: 18px;&quot;&gt;$$V_{bg}$$&lt;/font&gt;" style="text;html=1;align=center;verticalAlign=middle;whiteSpace=wrap;rounded=0;" vertex="1" parent="1">
          <mxGeometry x="630" y="90" width="60" height="30" as="geometry" />
        </mxCell>
        <mxCell id="ntq3JqYu1BypFF09Bx2Y-33" value="&lt;font style=&quot;font-size: 18px;&quot;&gt;$$R_2$$&lt;/font&gt;" style="text;html=1;align=center;verticalAlign=middle;whiteSpace=wrap;rounded=0;" vertex="1" parent="1">
          <mxGeometry x="382" y="195" width="60" height="30" as="geometry" />
        </mxCell>
        <mxCell id="ntq3JqYu1BypFF09Bx2Y-34" value="&lt;font style=&quot;font-size: 18px;&quot;&gt;$$V_{be1}$$&lt;/font&gt;" style="text;html=1;align=center;verticalAlign=middle;whiteSpace=wrap;rounded=0;" vertex="1" parent="1">
          <mxGeometry x="382" y="370" width="60" height="30" as="geometry" />
        </mxCell>
        <mxCell id="ntq3JqYu1BypFF09Bx2Y-35" value="&lt;font style=&quot;font-size: 18px;&quot;&gt;$$V_{be2}$$&lt;/font&gt;" style="text;html=1;align=center;verticalAlign=middle;whiteSpace=wrap;rounded=0;" vertex="1" parent="1">
          <mxGeometry x="555" y="372" width="60" height="30" as="geometry" />
        </mxCell>
        <mxCell id="ntq3JqYu1BypFF09Bx2Y-36" value="" style="endArrow=none;html=1;rounded=0;strokeWidth=2;" edge="1" parent="1" target="ntq3JqYu1BypFF09Bx2Y-37">
          <mxGeometry width="50" height="50" relative="1" as="geometry">
            <mxPoint x="380" y="117" as="sourcePoint" />
            <mxPoint x="662" y="117" as="targetPoint" />
          </mxGeometry>
        </mxCell>
        <mxCell id="ntq3JqYu1BypFF09Bx2Y-37" value="" style="shape=waypoint;sketch=0;fillStyle=solid;size=6;pointerEvents=1;points=[];fillColor=none;resizable=0;rotatable=0;perimeter=centerPerimeter;snapToPoint=1;" vertex="1" parent="1">
          <mxGeometry x="610" y="107" width="20" height="20" as="geometry" />
        </mxCell>
        <mxCell id="ntq3JqYu1BypFF09Bx2Y-40" value="" style="endArrow=none;html=1;rounded=0;dashed=1;fillColor=#e1d5e7;strokeColor=#9673a6;strokeWidth=2;" edge="1" parent="1">
          <mxGeometry width="50" height="50" relative="1" as="geometry">
            <mxPoint x="380" y="277" as="sourcePoint" />
            <mxPoint x="620" y="257" as="targetPoint" />
          </mxGeometry>
        </mxCell>
        <mxCell id="ntq3JqYu1BypFF09Bx2Y-41" value="" style="endArrow=none;html=1;rounded=0;dashed=1;fillColor=#e1d5e7;strokeColor=#9673a6;strokeWidth=2;" edge="1" parent="1">
          <mxGeometry width="50" height="50" relative="1" as="geometry">
            <mxPoint x="380" y="277" as="sourcePoint" />
            <mxPoint x="620" y="277" as="targetPoint" />
          </mxGeometry>
        </mxCell>
        <mxCell id="ntq3JqYu1BypFF09Bx2Y-43" value="" style="shape=waypoint;sketch=0;fillStyle=solid;size=6;pointerEvents=1;points=[];fillColor=none;resizable=0;rotatable=0;perimeter=centerPerimeter;snapToPoint=1;" vertex="1" parent="1">
          <mxGeometry x="370" y="267" width="20" height="20" as="geometry" />
        </mxCell>
        <mxCell id="ntq3JqYu1BypFF09Bx2Y-44" value="" style="endArrow=blockThin;startArrow=blockThin;html=1;rounded=0;endSize=2;startSize=2;endFill=1;startFill=1;fillColor=#f8cecc;strokeColor=#FF0000;strokeWidth=2;" edge="1" parent="1">
          <mxGeometry width="50" height="50" relative="1" as="geometry">
            <mxPoint x="616" y="277" as="sourcePoint" />
            <mxPoint x="616" y="257" as="targetPoint" />
          </mxGeometry>
        </mxCell>
        <mxCell id="ntq3JqYu1BypFF09Bx2Y-46" value="&lt;font style=&quot;font-size: 16px;&quot; color=&quot;#ff0000&quot;&gt;$$V_{os,ota}$$&lt;/font&gt;" style="text;html=1;align=center;verticalAlign=middle;whiteSpace=wrap;rounded=0;" vertex="1" parent="1">
          <mxGeometry x="625" y="246" width="60" height="30" as="geometry" />
        </mxCell>
        <mxCell id="ntq3JqYu1BypFF09Bx2Y-47" value="&lt;font style=&quot;font-size: 16px;&quot; color=&quot;#ff0000&quot;&gt;$$I_{e1}$$&lt;/font&gt;" style="text;html=1;align=center;verticalAlign=middle;whiteSpace=wrap;rounded=0;" vertex="1" parent="1">
          <mxGeometry x="370" y="146" width="60" height="30" as="geometry" />
        </mxCell>
        <mxCell id="ntq3JqYu1BypFF09Bx2Y-48" value="&lt;font style=&quot;font-size: 16px;&quot; color=&quot;#ff0000&quot;&gt;$$I_{e2}$$&lt;/font&gt;" style="text;html=1;align=center;verticalAlign=middle;whiteSpace=wrap;rounded=0;" vertex="1" parent="1">
          <mxGeometry x="570" y="146" width="60" height="30" as="geometry" />
        </mxCell>
        <mxCell id="ntq3JqYu1BypFF09Bx2Y-50" value="" style="shape=waypoint;sketch=0;fillStyle=solid;size=6;pointerEvents=1;points=[];fillColor=none;resizable=0;rotatable=0;perimeter=centerPerimeter;snapToPoint=1;" vertex="1" parent="1">
          <mxGeometry x="610" y="267" width="20" height="20" as="geometry" />
        </mxCell>
        <mxCell id="ntq3JqYu1BypFF09Bx2Y-52" value="" style="endArrow=none;html=1;rounded=0;exitX=0;exitY=0.5;exitDx=0;exitDy=0;exitPerimeter=0;entryDx=0;entryDy=0;entryPerimeter=0;strokeWidth=2;" edge="1" parent="1" source="ntq3JqYu1BypFF09Bx2Y-6" target="ntq3JqYu1BypFF09Bx2Y-51">
          <mxGeometry width="50" height="50" relative="1" as="geometry">
            <mxPoint x="620" y="302" as="sourcePoint" />
            <mxPoint x="620" y="246" as="targetPoint" />
          </mxGeometry>
        </mxCell>
        <mxCell id="ntq3JqYu1BypFF09Bx2Y-51" value="" style="shape=waypoint;sketch=0;fillStyle=solid;size=6;pointerEvents=1;points=[];fillColor=none;resizable=0;rotatable=0;perimeter=centerPerimeter;snapToPoint=1;" vertex="1" parent="1">
          <mxGeometry x="610" y="246" width="20" height="20" as="geometry" />
        </mxCell>
      </root>
    </mxGraphModel>
  </diagram>
</mxfile>
